<svg xmlns="http://www.w3.org/2000/svg" width="27.33" height="24.197" viewBox="0 0 27.33 24.197"><path d="M13.65 24.2a16.609 16.609 0 01-3.161-.316 1 1 0 11.4-1.954 12.668 12.668 0 002.759.287c6.437 0 11.668-4.541 11.668-10.087S20.088 2.012 13.65 2.012 1.983 6.524 1.983 12.1a9.223 9.223 0 002.557 6.293.988.988 0 01.2 1.035 6.328 6.328 0 01-1.09 1.925 5.713 5.713 0 002.615-.8A1.005 1.005 0 017.3 22.272a8.385 8.385 0 01-5.49 1.006 1.315 1.315 0 01-1.121-1.035 1.406 1.406 0 01.575-1.437 4.245 4.245 0 001.379-1.552A11.19 11.19 0 010 12.1C-.029 5.432 6.121 0 13.65 0s13.68 5.432 13.68 12.1-6.15 12.1-13.68 12.1zm1.265-12.1a1.264 1.264 0 10-1.264 1.264 1.276 1.276 0 001.264-1.264zm3.966 0a1.264 1.264 0 10-1.264 1.264 1.276 1.276 0 001.264-1.264zm-7.9 0a1.264 1.264 0 10-1.264 1.264 1.276 1.276 0 001.261-1.264z" fill="#fff"/></svg>