<svg xmlns="http://www.w3.org/2000/svg" width="25.141" height="22" viewBox="0 0 25.141 22"><g data-name="noun_smile chat_2663565"><g data-name="Group 12624"><path data-name="Path 19527" d="M6.638 22a1.619 1.619 0 01-.652-.139 1.587 1.587 0 01-.962-1.472v-1.974H3.418A3.422 3.422 0 010 15V3.418A3.422 3.422 0 013.418 0h18.3a3.422 3.422 0 013.418 3.418V15a3.422 3.422 0 01-3.418 3.418H11.139L7.721 21.57a1.593 1.593 0 01-1.083.43zM3.418 1.571a1.849 1.849 0 00-1.847 1.847V15a1.849 1.849 0 001.847 1.846h2.391a.786.786 0 01.786.786v2.759l3.7-3.337a.786.786 0 01.533-.208h10.895A1.849 1.849 0 0023.569 15V3.418a1.849 1.849 0 00-1.847-1.847z" fill="#fff"/></g><g data-name="Group 12628"><g data-name="Group 12625"><circle data-name="Ellipse 1269" cx="1.08" cy="1.08" r="1.08" fill="#fff" transform="translate(17.53 6.862)"/></g><g data-name="Group 12626"><circle data-name="Ellipse 1270" cx="1.08" cy="1.08" r="1.08" fill="#fff" transform="translate(10.41 6.862)"/></g><g data-name="Group 12627"><path data-name="Path 19528" d="M15.049 13.558a2.52 2.52 0 01-2.529-2.639.786.786 0 011.571-.006.962.962 0 00.958 1.074.973.973 0 00.958-1.068.786.786 0 111.571 0 2.52 2.52 0 01-2.529 2.639zm-.958-2.639z" fill="#fff"/></g></g></g></svg>