<svg xmlns="http://www.w3.org/2000/svg" width="26.473" height="24.268" viewBox="0 0 26.473 24.268"><g fill="#fff"><path data-name="Path 19522" d="M17.1 16.545a.552.552 0 00-.552.552v1.428a.485.485 0 01-.485.485H7.17a.552.552 0 00-.419.2l-2.532 2.994v-2.642a.552.552 0 00-.552-.552H1.588a.485.485 0 01-.488-.485V7.103a.485.485 0 01.485-.485h4.478a.552.552 0 000-1.1H1.588A1.588 1.588 0 000 7.103v11.422a1.588 1.588 0 001.588 1.59H3.1v3.6a.552.552 0 00.976.353l3.336-3.953h8.648a1.588 1.588 0 001.588-1.588v-1.43a.552.552 0 00-.548-.552z"/><path data-name="Path 19523" d="M24.821 0H9.376a1.655 1.655 0 00-1.655 1.655v12.133a1.655 1.655 0 001.655 1.655h9.245l3.568 4.219a.552.552 0 00.971-.358v-3.862h1.661a1.655 1.655 0 001.655-1.655V1.655A1.655 1.655 0 0024.821 0zm.552 13.788a.552.552 0 01-.552.552h-2.209a.552.552 0 00-.552.552V17.8l-2.758-3.265a.552.552 0 00-.419-.193H9.376a.552.552 0 01-.552-.552V1.655a.552.552 0 01.552-.552h15.445a.552.552 0 01.552.552z"/><path data-name="Path 19524" d="M22.061 7.17h-9.927a.552.552 0 000 1.1h9.927a.552.552 0 000-1.1z"/><path data-name="Path 19525" d="M22.061 10.479h-9.927a.552.552 0 000 1.1h9.927a.552.552 0 000-1.1z"/><path data-name="Path 19526" d="M22.061 3.861h-9.927a.552.552 0 000 1.1h9.927a.552.552 0 000-1.1z"/></g></svg>