<svg xmlns="http://www.w3.org/2000/svg" width="28.047" height="23.523" viewBox="0 0 28.047 23.523"><path data-name="Path 19521" d="M21.811 18.634c3.9-1.9 6.236-5.062 6.236-8.457C28.047 4.565 21.756 0 14.024 0S0 4.565 0 10.176s6.278 10.165 13.995 10.176a.485.485 0 01.375.178c1.934 2.375 8.49 3.14 10.515 2.971-.273-.24-.513-.448-.726-.633a6.754 6.754 0 01-2.586-3.629.479.479 0 01.238-.605zM20.1 14.015a9.632 9.632 0 01-5.91 2.017h-.171a9.53 9.53 0 01-6.082-2.3.477.477 0 01-.039-.677.486.486 0 01.683-.039 8.544 8.544 0 005.456 2.061 8.631 8.631 0 005.458-1.8.486.486 0 01.68.074.477.477 0 01-.075.664z" fill="#fff"/></svg>