<svg xmlns="http://www.w3.org/2000/svg" width="12" height="12.351" viewBox="0 0 12 12.351"><path d="M2.263 8.332a4.238 4.238 0 01-.92-1.211 2.092 2.092 0 01-.081-.165c-.006-.012-.072-.165-.048-.1a3.82 3.82 0 01-.138-.393A4.948 4.948 0 01.983 6.1l-.036-.183c-.006-.03-.009-.063-.015-.093.009.078-.006-.069-.006-.069a4.395 4.395 0 01-.009-.743c0-.051.009-.1.015-.156l.009-.078c0 .018-.015.093 0 .006.018-.114.039-.228.066-.339a5.668 5.668 0 01.195-.618c.006-.018.033-.081 0 0 .009-.024.021-.045.03-.069l.063-.138a4.668 4.668 0 01.411-.687l.045-.063c.048-.069-.021.027.012-.015a5.225 5.225 0 01.441-.489c.075-.072.15-.144.231-.213l.12-.1a1.778 1.778 0 01.096-.078 5.642 5.642 0 01.552-.363c.2-.1.4-.21.618-.3-.075.03.057-.021.084-.033l.174-.066c.111-.039.225-.075.339-.108a5.612 5.612 0 01.707-.156c.018 0 .183-.027.1-.015.057-.006.117-.015.174-.018q.2-.018.4-.027a6.357 6.357 0 01.755.018l.174.018.087.009c-.078-.009-.006 0 .009 0 .129.021.255.042.381.069a6.225 6.225 0 01.692.189l.312.114c.015.006.081.033.006 0 .024.012.051.021.075.033.063.027.123.057.186.087a5.544 5.544 0 01.582.327c.1.06.189.126.279.192.021.015.135.1.066.048l.138.111a4.94 4.94 0 01.48.459c.069.075.138.153.2.234.015.021.033.039.048.06.048.06-.06-.084.012.015.033.048.069.093.1.141a4.5 4.5 0 01.33.555c.024.045.045.09.066.138.009.018.063.144.045.1l.039.1c.021.054.039.108.057.162a4.2 4.2 0 01.156.63c.006.027.024.171.012.072l.018.153a4.583 4.583 0 01.009.666c0 .051-.006.1-.012.156 0 .033-.009.063-.012.1 0 .057.012-.072 0 .015a4.606 4.606 0 01-.147.633q-.045.144-.1.288l-.027.072c.033-.084.009-.018 0 0-.027.057-.051.114-.081.171a4.947 4.947 0 01-.324.561 3.166 3.166 0 01-.087.126c-.015.021-.1.135-.045.063-.072.09-.147.18-.222.267a4.92 4.92 0 01-.474.462l-.12.1c-.021.018-.042.033-.063.048.015-.012.066-.048 0 0-.09.066-.183.132-.276.195a5.845 5.845 0 01-.594.342c-.1.051-.21.1-.315.147.081-.036-.066.027-.084.033l-.174.066a6.03 6.03 0 01-.689.195 6.64 6.64 0 01-.336.066.808.808 0 01-.084.012c-.012 0-.1.015-.048.006s-.036 0-.048.006c-.036 0-.072.009-.108.012a5.821 5.821 0 01-.791.027 5.552 5.552 0 01-.878-.09.463.463 0 00-.555.315.456.456 0 00.315.555 6.463 6.463 0 005.986-1.889 5.048 5.048 0 001.244-2.578 4.9 4.9 0 00-.468-2.929A6.044 6.044 0 006.553.018a6.321 6.321 0 00-5.522 2.35 4.979 4.979 0 00-1 2.686 4.895 4.895 0 001 3.234 6 6 0 00.609.686.456.456 0 00.642-.647z" fill="#9395ad"/><path d="M1.558 8.422Q.906 9.847.258 11.27l-.189.411a.449.449 0 00.615.615q1.862-.8 3.723-1.613l.525-.228a.454.454 0 00.162-.615.462.462 0 00-.615-.162L.756 11.294l-.525.228.615.615q.652-1.425 1.3-2.848l.189-.411a.461.461 0 00-.162-.615.449.449 0 00-.615.159z" fill="#9395ad"/></svg>