<svg xmlns="http://www.w3.org/2000/svg" width="66" height="66" viewBox="0 0 66 66"><defs><style>.ch-diagram_svg__ch-diagram_svg__a{fill:#a2b6ca}</style></defs><path class="ch-diagram_svg__ch-diagram_svg__a" d="M56.7 26.5v13.1l-3.6-3.1a.992.992 0 00-1.3 1.5l5.3 4.5a.844.844 0 00.7.2 1.854 1.854 0 00.7-.2l5.3-4.5a.992.992 0 10-1.3-1.5l-3.7 3.2V26.5c0-10-7.4-18-16.9-20.9V1a.945.945 0 00-1-1H25.3a.945.945 0 00-1 1v4.5c-10.2 3.2-17 11.5-17 21v13.2l-3.6-3.1a.992.992 0 10-1.3 1.5l5.3 4.5a.844.844 0 00.7.2 1.854 1.854 0 00.7-.2l5.3-4.5a.992.992 0 10-1.3-1.5l-3.6 3.1V26.5c0-8.4 6-15.8 15-18.8v1.6a.945.945 0 001 1H32v12.2h-5.1a.945.945 0 00-1 1v9a.945.945 0 001 1H32v3.9h-5.1a.945.945 0 00-1 1v9a.945.945 0 001 1H32v3.9h-5.1a.945.945 0 00-1 1v9a.945.945 0 001 1H39a.945.945 0 001-1v-9a.945.945 0 00-1-1h-5v-3.9h5.1a.945.945 0 001-1v-9a.945.945 0 00-1-1H34v-3.9h5.1a.945.945 0 001-1v-9a.945.945 0 00-1-1H34V10.3h6.8a.945.945 0 001-1V7.6c8.4 2.9 14.9 10.1 14.9 18.9zM38 61.5H27.9v-7H38zm.1-15H27.9v-7h10.2zm0-15H27.9v-7h10.2zm1.7-23.2H26.3V2h13.5z"/><path class="ch-diagram_svg__ch-diagram_svg__a" d="M15.3 44.7H1a.945.945 0 00-1 1v7.1a.945.945 0 001 1h6.3v3.1H1a.945.945 0 00-1 1V65a.945.945 0 001 1h14.3a.945.945 0 001-1v-7.1a.945.945 0 00-1-1H9.2v-3.1h6.1a.945.945 0 001-1v-7.1a1 1 0 00-1-1zm-1 19.3H2v-5.1h12.3zm0-12.2H2v-5.1h12.3zm50.7 2a.945.945 0 001-1v-7.1a.945.945 0 00-1-1H50.7a.945.945 0 00-1 1v7.1a.945.945 0 001 1h6v3h-6a.945.945 0 00-1 1V65a.945.945 0 001 1H65a.945.945 0 001-1v-7.1a.945.945 0 00-1-1h-6.3v-3H65zM64 64H51.7v-5.1H64zM51.7 46.7H64v5.1H51.7z"/></svg>