<svg xmlns="http://www.w3.org/2000/svg" width="12" height="14" viewBox="0 0 12 14"><path d="M9.4 6.5v2.3h.7v-3zM6.6 11.3H.8V1.9H6l.8-.7h-6c-.2 0-.4.1-.5.2-.2.1-.3.3-.3.5v9.4c0 .2.1.4.2.5.1.2.3.2.5.2h5.9v-.7z"/><path d="M4.1 5.5l-.2.2-.1.1c0 .4-.3 1.4-.7 2.7 0 .1 0 .2.1.3 0 .1.1.2.2.2h.2c1-.3 1.9-.6 2.6-.9h.2c1.8-1.8 3.5-3.4 4.9-4.9l.3-.3c.2-.4.4-.8.4-1.2 0-.5-.3-.9-.6-1.2-.3-.3-.7-.5-1.1-.5-.5 0-.9.2-1.2.5-.5.5-.9 1-1.4 1.4-.8.8-2 2.1-3.6 3.6zm5.5-4.4c.2-.2.4-.3.7-.3.2 0 .4.1.6.3.2.2.3.4.3.6 0 .3-.2.5-.4.7-.1.2-1 1.1-2.7 2.7L6 7.2l-.2.2c-.2.1-.7.2-1.4.5L4 8c.2-.5.3-1 .4-1.3.1-.2.1-.4.2-.5l5-5.1zM12 10l-.5-.5-1.8 1.7L8 9.5l-.5.5 1.7 1.7-1.7 1.8.5.5 1.7-1.7 1.8 1.7.5-.5-1.7-1.8z"/></svg>