<svg xmlns="http://www.w3.org/2000/svg" width="12" height="14" viewBox="0 0 12 14"><path d="M.7 12c-.2 0-.4-.1-.5-.2-.1-.1-.2-.3-.2-.5V1.9c0-.2.1-.4.2-.5.1-.1.3-.2.5-.2h6l-.7.7H.8v9.4h8.6V6.5l.8-.7v5.5c0 .4-.3.7-.7.8L.7 12z"/><path d="M4.1 5.5l-.2.2-.1.1c0 .4-.3 1.4-.7 2.7 0 .1 0 .2.1.3 0 .1.1.2.2.2h.2c1-.3 1.9-.6 2.6-.9h.2c1.8-1.8 3.5-3.4 4.9-4.9l.3-.3c.2-.4.4-.8.4-1.2 0-.5-.3-.9-.6-1.2-.3-.3-.7-.5-1.1-.5-.5 0-.9.2-1.2.5-.5.5-.9 1-1.4 1.4-.8.8-2 2.1-3.6 3.6zm5.5-4.4c.2-.2.4-.3.7-.3.2 0 .4.1.6.3.2.2.3.4.3.6 0 .3-.2.5-.4.7-.1.2-1 1.1-2.7 2.7L6 7.2l-.2.2c-.2.1-.7.2-1.4.5L4 8c.2-.5.3-1 .4-1.3.1-.2.1-.4.2-.5l5-5.1z"/></svg>