<svg xmlns="http://www.w3.org/2000/svg" width="56.301" height="60" viewBox="0 0 56.301 60"><defs><style>.ch-human_svg__ch-human_svg__a{fill:#a2b6ca}</style></defs><path class="ch-human_svg__ch-human_svg__a" d="M6.554 7.295a5.493 5.493 0 1010.986 0v-1.8a5.493 5.493 0 10-10.986 0zm1.975-1.8a3.515 3.515 0 013.51-3.517 3.525 3.525 0 013.522 3.517v1.8a3.518 3.518 0 11-7.036 0z"/><path class="ch-human_svg__ch-human_svg__a" d="M19.263 12.841a5.55 5.55 0 00-.564 0h-2.373a.964.964 0 00-.676.241l-3.449 3.223-3.314-3.2a.969.969 0 00-.689-.259H5.681A5.644 5.644 0 000 18.474c0 .173.012.333.012.506v13.8a3.535 3.535 0 003.5 3.519h.04a3.336 3.336 0 001.666-.485l.614 20.649a3.677 3.677 0 006.373 2.364 3.68 3.68 0 006.373-2.381l.613-20.627a3.428 3.428 0 001.674.434 3.474 3.474 0 003.469-3.476v-13.8a5.672 5.672 0 00-5.071-6.136zm-4.352 45.178a1.7 1.7 0 01-1.691-1.706V35.961a.988.988 0 10-1.975 0v20.352a1.718 1.718 0 01-3.435.059L7.094 32.59h10.213l-.7 23.775a1.7 1.7 0 01-1.696 1.654zm7.455-39.193c0 .033-.011.066-.011.1v13.846a1.482 1.482 0 11-2.963 0v-3.015l.014-.48c0-.068-.014-.135-.014-.2v-5.573a.988.988 0 00-1.975 0v6.224l-.052.887H7.037l-.07-1.406c0-.046.081-.081-.043-.125v-5.58a.988.988 0 00-1.975 0v9.2a1.53 1.53 0 01-1.412 1.615h-.028a1.56 1.56 0 01-1.522-1.545V18.926c0-.033.011-.066.007-.1a3.713 3.713 0 01-.012-.373 3.611 3.611 0 011.085-2.585 3.651 3.651 0 012.614-1.055h2.113l3.7 3.576c.006.006.012 0 .019 0s.028.019.043.031.022.014.034.023l.046.031.036.022.047.026.039.02.047.021.042.016.047.016.044.012.048.011.046.008.048.006h.233l.051-.008.042-.009.05-.012.042-.013.049-.018.041-.018.046-.022.041-.022.043-.026.04-.027.041-.031.037-.031c.007-.007.015.014.023.007l3.852-3.589h1.983a3.634 3.634 0 013.667 4.012zm25.715 20.452a8.219 8.219 0 108.219 8.219 8.219 8.219 0 00-8.219-8.219zm0 14.464a6.244 6.244 0 116.244-6.244 6.244 6.244 0 01-6.244 6.244z"/><path class="ch-human_svg__ch-human_svg__a" d="M50.493 45.128l-3.483 2.568-1.137-1.511a.988.988 0 00-1.578 1.187l1.725 2.293a.988.988 0 001.375.2l4.27-3.148a.988.988 0 00-1.173-1.59zm-2.412-23.727A8.219 8.219 0 1056.3 29.62a8.219 8.219 0 00-8.219-8.219zm0 14.464a6.244 6.244 0 116.244-6.244 6.244 6.244 0 01-6.244 6.249z"/><path class="ch-human_svg__ch-human_svg__a" d="M50.493 27.257l-3.483 2.568-1.137-1.512a.988.988 0 00-1.578 1.188l1.725 2.293a.988.988 0 001.375.2l4.27-3.148a.988.988 0 10-1.173-1.59zM48.081 3.534a8.219 8.219 0 108.219 8.219 8.219 8.219 0 00-8.219-8.219zm0 14.464a6.244 6.244 0 116.244-6.244 6.244 6.244 0 01-6.244 6.244z"/><path class="ch-human_svg__ch-human_svg__a" d="M50.493 9.384l-3.483 2.568-1.14-1.511a.988.988 0 00-1.578 1.187l1.725 2.293a.988.988 0 001.375.2l4.27-3.148a.988.988 0 00-1.173-1.59zm-12.972 3.455a.988.988 0 100-1.975h-5.7a.972.972 0 00-.947 1.008v16.767h-3.456a.988.988 0 000 1.975h3.456v16.765a.974.974 0 00.947 1.011h5.7a.988.988 0 000-1.975h-4.674v-15.8h4.674a.988.988 0 100-1.975h-4.674v-15.8z"/></svg>