<svg xmlns="http://www.w3.org/2000/svg" width="16" height="16" viewBox="0 0 16 16"><path d="M8.3 10.2H6.6V9h1.6c1.3-.1 2.3-1.2 2.2-2.5-.1-1.1-1-2.1-2.2-2.2H3.4c-1.3.1-2.3 1.2-2.2 2.5.1 1.2 1 2.1 2.2 2.2h.2v1.2h-.2C1.4 10-.1 8.3.1 6.3.2 4.6 1.6 3.2 3.4 3h4.9c2 .2 3.5 1.9 3.3 3.9-.2 1.8-1.6 3.2-3.3 3.3z"/><path d="M12.673 12.947h-4.9c-2-.2-3.5-1.9-3.3-3.9.1-1.7 1.5-3.1 3.3-3.3h1.5v1.2h-1.5c-1.3.2-2.3 1.3-2.2 2.6.1 1.2 1 2.1 2.2 2.2h4.9c1.3-.1 2.3-1.2 2.2-2.5-.1-1.1-1-2.1-2.2-2.2h-.3v-1.3h.3c2 .2 3.5 1.9 3.3 3.9-.2 1.8-1.6 3.2-3.3 3.3z"/></svg>