<svg xmlns="http://www.w3.org/2000/svg" width="17.73" height="17.805" viewBox="0 0 17.73 17.805"><defs><clipPath id="ch-looking-glass_svg__a"><path d="M274.5-231.5l-5.3-5.3a6.626 6.626 0 001.5-4.3 6.966 6.966 0 00-2-4.9 6.416 6.416 0 00-4.9-2 6.909 6.909 0 00-4.8 2 6.416 6.416 0 00-2 4.9 6.966 6.966 0 002 4.9 6.416 6.416 0 004.9 2 6.626 6.626 0 004.3-1.5l5.3 5.3a.725.725 0 001 0 .782.782 0 000-1.1zm-10.6-4.2a4.918 4.918 0 01-3.8-1.6 5.464 5.464 0 01-1.6-3.8 4.919 4.919 0 011.6-3.8 5.465 5.465 0 013.8-1.6 5.066 5.066 0 013.8 1.6 5.066 5.066 0 011.6 3.8 4.917 4.917 0 01-1.6 3.8 5.463 5.463 0 01-3.8 1.6z" fill="#9395ad"/></clipPath><clipPath id="ch-looking-glass_svg__b"><path d="M-355 2300h2538V-771H-355z" fill="#9395ad"/></clipPath></defs><g transform="translate(-257 248)" clip-path="url(#ch-looking-glass_svg__a)"><g clip-path="url(#ch-looking-glass_svg__b)"><path d="M252-253h27.731v27.8H252z" fill="#9395ad"/></g></g></svg>