<svg xmlns="http://www.w3.org/2000/svg" viewBox="0 0 84.96 23.49"><path fill="#edae2b" d="M33.72-.03a4.4 4.4 0 11-4.42 4.4 4.41 4.41 0 014.42-4.4"/><path fill="#fffffe" d="M8.36 9.78H0v13.7h3.94V12.72h3.44a1.47 1.47 0 011.48 1.47v9.3h3.94v-9.3a4.42 4.42 0 00-4.44-4.41m43.33 10.76h-2.58a1.47 1.47 0 01-1.36-1.47v-6.36h3.94V9.77h-3.94V4.88h-3.94v4.89h-1.73l-2.21 2.94h3.94v6.37a4.41 4.41 0 004.42 4.4h3.44v-2.94"/><path fill="#fffffe" d="M41.12 9.78h-4.44l-2.95 3.92-2.96-3.92h-4.43l5.17 6.84-5.17 6.86h4.43l2.96-3.92 2.95 3.92h4.44l-5.17-6.86 5.17-6.84m27.3 0l-3.44 8.72-3.44-8.72H57.6l5.42 13.7h3.92l5.42-13.7h-3.94m-15.75 13.7h3.94V9.78h-3.94v13.7zm0-14.68h3.94V4.89h-3.94V8.8z"/><path fill="#fffffe" d="M20.67 12.72a3.1 3.1 0 012.74 2.45h-5.48a3.09 3.09 0 012.74-2.45zm0 7.82a3.1 3.1 0 01-2.74-2.45h9.48a6.9 6.9 0 10-6.74 5.39h4.67l2.21-2.94zm55.43-2.42H81v2.45h-4.7a.87.87 0 01-.21 0 1.23 1.23 0 01-1-1.19 1.21 1.21 0 011.01-1.26zm4.42-8.34h-7.18l-1.16 2.94h7.35A1.47 1.47 0 0181 14.19v1h-5.9a4.15 4.15 0 000 8.3H85v-9.3a4.43 4.43 0 00-4.48-4.41z"/></svg>