<svg xmlns="http://www.w3.org/2000/svg" width="17.796" height="14.379" viewBox="0 0 17.796 14.379"><defs><clipPath id="ch-transfer_svg__a"><path d="M6.286-16.723l-4.216-.025 1.01-.935a.465.465 0 00.152-.345.465.465 0 00-.151-.344l-.127-.128a.451.451 0 00-.351-.169.45.45 0 00-.33.144L.177-16.5a.384.384 0 00-.177.317.428.428 0 00.151.319l2.072 2.044a.386.386 0 00.32.172h.008a.672.672 0 00.379-.152l.15-.171a.486.486 0 00.119-.319.485.485 0 00-.169-.369l-.93-.908h4.244a.6.6 0 00.4-.149.609.609 0 00.151-.4.6.6 0 00-.593-.605h-.016zm2.4-4.135l-.1-.049-1.947-1.945A.5.5 0 006.286-23a.5.5 0 00-.353.148l-.151.148a.462.462 0 00-.141.334.463.463 0 00.163.354l.96.936H2.719a.555.555 0 00-.549.56v.071a.525.525 0 00.52.53.528.528 0 00.065 0h3.983l-.984.935a.428.428 0 00-.151.319v.03a.452.452 0 00.127.316l.126.123a.607.607 0 00.324.172h.029a.442.442 0 00.3-.123l2.12-2.018a.422.422 0 00.151-.294.318.318 0 00.033-.141.308.308 0 00-.132-.254z" transform="translate(-.001 23)" fill="#a2b6ca"/></clipPath><clipPath id="ch-transfer_svg__b"><path d="M-876-826.533H197.935V-2126H-876z" transform="translate(876 2126)" fill="#a2b6ca"/></clipPath></defs><path d="M.444 14.379a.422.422 0 01-.3-.126.473.473 0 01-.07-.552l.187-.415q.577-1.266 1.16-2.539a6.738 6.738 0 01-.4-.471A4.975 4.975 0 01.009 7.003a5 5 0 011.016-2.717 6.339 6.339 0 015.038-2.4c.182 0 .366.008.547.023a6.5 6.5 0 014.023 1.806H9.226l-.078-.05a5.57 5.57 0 00-.588-.331L8.49 3.3c-.04-.019-.078-.038-.117-.055l-.032-.013h-.009l-.011-.006-.031-.017-.09-.034a10.056 10.056 0 00-.224-.081 6.143 6.143 0 00-.7-.191 8 8 0 00-.356-.065l-.031-.005h-.042l-.055-.011-.143-.015h-.032a4.502 4.502 0 00-.532-.026h-.232a9.053 9.053 0 00-.4.027c-.046 0-.1.008-.142.014H5.27l-.091.024a5.792 5.792 0 00-.716.157c-.1.03-.222.067-.342.11l-.108.04-.069.026-.107.042a7.909 7.909 0 00-.6.294 5.68 5.68 0 00-.559.371l-.024.019-.019.015-.055.045-.091.077-.031.026c-.085.072-.162.146-.234.215a5.468 5.468 0 00-.446.494l-.008.01v.006l-.022.031-.022.031a4.833 4.833 0 00-.261.406c-.051.087-.1.184-.155.289l-.032.069-.032.069a.278.278 0 01-.011.027v.006c0 .008-.007.016-.01.024a5.82 5.82 0 00-.2.624c-.024.1-.044.2-.066.342a.059.059 0 000 .007.056.056 0 010 .007l-.007.06v.016c-.005.048-.01.095-.013.141a4.47 4.47 0 00.009.753l-.003.091c0 .013 0 .026.006.039s0 .03.007.044l.037.184c.031.142.061.259.094.368a3.844 3.844 0 00.14.4v-.012c.006.01.028.061.04.088l.013.03c.024.052.051.111.082.167a4.254 4.254 0 00.931 1.224.457.457 0 01.085.523l-.006.014-.006.014-.19.415-.378.802-.44.962 2.326-1.01.844-.362a.619.619 0 01.242-.053.452.452 0 01.191.04.364.364 0 01.049.007 5.759 5.759 0 00.889.09h.2a5.886 5.886 0 00.6-.031h.044l.065-.007h.03a.434.434 0 00.067-.008h.019a.512.512 0 00.066-.01 7.12 7.12 0 00.34-.066 6.045 6.045 0 00.7-.2l.094-.035.082-.031.076-.031.033-.014c.088-.038.179-.082.268-.125l.024-.016a5.922 5.922 0 00.6-.346c.095-.064.19-.132.279-.2l.028-.02.008-.006.031-.028.092-.078.03-.026a4.947 4.947 0 00.425-.408h1.161a5.6 5.6 0 01-.437.559 6.333 6.333 0 01-4.77 2.027 7.117 7.117 0 01-1.275-.115l-.108.047-.215.094-2.152.932-.014.006-1.6.693a.629.629 0 01-.248.062z" fill="#a2b6ca"/><g transform="translate(8.981)" clip-path="url(#ch-transfer_svg__a)"><g transform="translate(-370.673 -889.867)" clip-path="url(#ch-transfer_svg__b)"><path d="M368.556 887.751h13.048v13.585h-13.048z" fill="#a2b6ca"/></g></g></svg>